<mxfile host="app.diagrams.net" modified="2022-01-06T05:20:54.705Z" agent="5.0 (Windows NT 10.0; Win64; x64) AppleWebKit/537.36 (KHTML, like Gecko) Chrome/96.0.4664.110 Safari/537.36" etag="dTVqKzLXawu1ExcD5wUc" version="16.2.2" type="github">
  <diagram id="wlK1e1yG8IvgCQMf2wPX" name="Page-1">
    <mxGraphModel dx="1422" dy="706" grid="1" gridSize="10" guides="1" tooltips="1" connect="1" arrows="1" fold="1" page="1" pageScale="1" pageWidth="827" pageHeight="1169" math="0" shadow="0">
      <root>
        <mxCell id="0" />
        <mxCell id="1" parent="0" />
        <mxCell id="F0gC_sX0E5ZvVLbw8DYC-1" value="Actor" style="shape=umlActor;verticalLabelPosition=bottom;verticalAlign=top;html=1;" parent="1" vertex="1">
          <mxGeometry x="110" y="230" width="30" height="60" as="geometry" />
        </mxCell>
        <mxCell id="F0gC_sX0E5ZvVLbw8DYC-2" value="Object" style="html=1;" parent="1" vertex="1">
          <mxGeometry x="250" y="240" width="110" height="50" as="geometry" />
        </mxCell>
        <mxCell id="F0gC_sX0E5ZvVLbw8DYC-4" value="" style="shape=umlLifeline;participant=umlActor;perimeter=lifelinePerimeter;whiteSpace=wrap;html=1;container=1;collapsible=0;recursiveResize=0;verticalAlign=top;spacingTop=36;outlineConnect=0;" parent="1" vertex="1">
          <mxGeometry x="380" y="220" width="20" height="410" as="geometry" />
        </mxCell>
        <mxCell id="F0gC_sX0E5ZvVLbw8DYC-12" value="" style="html=1;points=[];perimeter=orthogonalPerimeter;" parent="F0gC_sX0E5ZvVLbw8DYC-4" vertex="1">
          <mxGeometry x="5" y="60" width="10" height="80" as="geometry" />
        </mxCell>
        <mxCell id="F0gC_sX0E5ZvVLbw8DYC-27" value="" style="html=1;points=[];perimeter=orthogonalPerimeter;" parent="F0gC_sX0E5ZvVLbw8DYC-4" vertex="1">
          <mxGeometry x="5" y="365" width="10" height="40" as="geometry" />
        </mxCell>
        <mxCell id="F0gC_sX0E5ZvVLbw8DYC-28" value="self call" style="edgeStyle=orthogonalEdgeStyle;html=1;align=left;spacingLeft=2;endArrow=block;rounded=0;entryX=1;entryY=0;curved=1;" parent="F0gC_sX0E5ZvVLbw8DYC-4" source="F0gC_sX0E5ZvVLbw8DYC-4" target="F0gC_sX0E5ZvVLbw8DYC-27" edge="1">
          <mxGeometry x="0.0041" y="10" relative="1" as="geometry">
            <mxPoint x="40" y="320" as="sourcePoint" />
            <Array as="points">
              <mxPoint x="60" y="340" />
              <mxPoint x="60" y="365" />
            </Array>
            <mxPoint y="1" as="offset" />
          </mxGeometry>
        </mxCell>
        <mxCell id="F0gC_sX0E5ZvVLbw8DYC-5" value="frame" style="shape=umlFrame;whiteSpace=wrap;html=1;" parent="1" vertex="1">
          <mxGeometry y="280" width="300" height="235" as="geometry" />
        </mxCell>
        <mxCell id="F0gC_sX0E5ZvVLbw8DYC-6" value="dispatch" style="html=1;verticalAlign=bottom;startArrow=oval;startFill=1;endArrow=block;startSize=8;rounded=0;" parent="1" target="F0gC_sX0E5ZvVLbw8DYC-8" edge="1">
          <mxGeometry width="60" relative="1" as="geometry">
            <mxPoint x="400" y="380" as="sourcePoint" />
            <mxPoint x="600" y="400" as="targetPoint" />
          </mxGeometry>
        </mxCell>
        <mxCell id="F0gC_sX0E5ZvVLbw8DYC-8" value="Module" style="shape=module;align=left;spacingLeft=20;align=center;verticalAlign=top;" parent="1" vertex="1">
          <mxGeometry x="530" y="350" width="110" height="50" as="geometry" />
        </mxCell>
        <mxCell id="F0gC_sX0E5ZvVLbw8DYC-9" value="package" style="shape=folder;fontStyle=1;spacingTop=10;tabWidth=40;tabHeight=14;tabPosition=left;html=1;" parent="1" vertex="1">
          <mxGeometry x="550" y="450" width="70" height="50" as="geometry" />
        </mxCell>
        <mxCell id="F0gC_sX0E5ZvVLbw8DYC-13" value=":Object" style="shape=umlLifeline;perimeter=lifelinePerimeter;whiteSpace=wrap;html=1;container=1;collapsible=0;recursiveResize=0;outlineConnect=0;size=40;" parent="1" vertex="1">
          <mxGeometry x="460" y="215" width="100" height="300" as="geometry" />
        </mxCell>
        <mxCell id="F0gC_sX0E5ZvVLbw8DYC-14" value="" style="shape=umlLifeline;participant=umlBoundary;perimeter=lifelinePerimeter;whiteSpace=wrap;html=1;container=1;collapsible=0;recursiveResize=0;verticalAlign=top;spacingTop=36;outlineConnect=0;" parent="1" vertex="1">
          <mxGeometry x="140" y="90" width="50" height="300" as="geometry" />
        </mxCell>
        <mxCell id="F0gC_sX0E5ZvVLbw8DYC-17" value="dispatch" style="html=1;verticalAlign=bottom;endArrow=block;rounded=0;edgeStyle=orthogonalEdgeStyle;curved=1;" parent="F0gC_sX0E5ZvVLbw8DYC-14" target="F0gC_sX0E5ZvVLbw8DYC-4" edge="1">
          <mxGeometry width="80" relative="1" as="geometry">
            <mxPoint x="30" y="130" as="sourcePoint" />
            <mxPoint x="90" y="140" as="targetPoint" />
          </mxGeometry>
        </mxCell>
        <mxCell id="F0gC_sX0E5ZvVLbw8DYC-15" value="" style="shape=requiredInterface;html=1;verticalLabelPosition=bottom;sketch=0;" parent="1" vertex="1">
          <mxGeometry x="390" y="390" width="40" height="80" as="geometry" />
        </mxCell>
        <mxCell id="F0gC_sX0E5ZvVLbw8DYC-16" value="æ‰“" style="html=1;verticalAlign=bottom;endArrow=open;dashed=1;endSize=8;rounded=0;" parent="1" target="F0gC_sX0E5ZvVLbw8DYC-4" edge="1">
          <mxGeometry relative="1" as="geometry">
            <mxPoint x="500" y="510" as="sourcePoint" />
            <mxPoint x="420" y="510" as="targetPoint" />
          </mxGeometry>
        </mxCell>
        <mxCell id="F0gC_sX0E5ZvVLbw8DYC-18" value="" style="html=1;points=[];perimeter=orthogonalPerimeter;" parent="1" vertex="1">
          <mxGeometry x="660" y="210" width="10" height="80" as="geometry" />
        </mxCell>
        <mxCell id="F0gC_sX0E5ZvVLbw8DYC-19" value="dispatch" style="html=1;verticalAlign=bottom;endArrow=block;entryX=0;entryY=0;rounded=0;curved=1;" parent="1" target="F0gC_sX0E5ZvVLbw8DYC-18" edge="1">
          <mxGeometry relative="1" as="geometry">
            <mxPoint x="590" y="210" as="sourcePoint" />
          </mxGeometry>
        </mxCell>
        <mxCell id="F0gC_sX0E5ZvVLbw8DYC-20" value="return" style="html=1;verticalAlign=bottom;endArrow=open;dashed=1;endSize=8;exitX=0;exitY=0.95;rounded=0;curved=1;" parent="1" source="F0gC_sX0E5ZvVLbw8DYC-18" edge="1">
          <mxGeometry relative="1" as="geometry">
            <mxPoint x="590" y="286" as="targetPoint" />
          </mxGeometry>
        </mxCell>
        <mxCell id="F0gC_sX0E5ZvVLbw8DYC-21" value="" style="html=1;points=[];perimeter=orthogonalPerimeter;" parent="1" vertex="1">
          <mxGeometry x="225" y="570" width="10" height="40" as="geometry" />
        </mxCell>
        <mxCell id="F0gC_sX0E5ZvVLbw8DYC-22" value="self call" style="edgeStyle=orthogonalEdgeStyle;html=1;align=left;spacingLeft=2;endArrow=block;rounded=0;entryX=1;entryY=0;curved=1;" parent="1" target="F0gC_sX0E5ZvVLbw8DYC-21" edge="1">
          <mxGeometry relative="1" as="geometry">
            <mxPoint x="230" y="550" as="sourcePoint" />
            <Array as="points">
              <mxPoint x="230" y="540" />
              <mxPoint x="260" y="540" />
              <mxPoint x="260" y="570" />
            </Array>
          </mxGeometry>
        </mxCell>
        <mxCell id="F0gC_sX0E5ZvVLbw8DYC-23" value="" style="html=1;points=[];perimeter=orthogonalPerimeter;" parent="1" vertex="1">
          <mxGeometry x="85" y="590" width="10" height="40" as="geometry" />
        </mxCell>
        <mxCell id="F0gC_sX0E5ZvVLbw8DYC-24" value="self call" style="edgeStyle=orthogonalEdgeStyle;html=1;align=left;spacingLeft=2;endArrow=block;rounded=0;entryX=1;entryY=0;curved=1;" parent="1" target="F0gC_sX0E5ZvVLbw8DYC-23" edge="1">
          <mxGeometry relative="1" as="geometry">
            <mxPoint x="90" y="570" as="sourcePoint" />
            <Array as="points">
              <mxPoint x="120" y="570" />
            </Array>
          </mxGeometry>
        </mxCell>
        <mxCell id="F0gC_sX0E5ZvVLbw8DYC-25" value="" style="html=1;points=[];perimeter=orthogonalPerimeter;" parent="1" vertex="1">
          <mxGeometry x="690" y="450" width="10" height="80" as="geometry" />
        </mxCell>
        <mxCell id="F0gC_sX0E5ZvVLbw8DYC-26" value="dispatch" style="html=1;verticalAlign=bottom;startArrow=oval;endArrow=block;startSize=8;rounded=0;curved=1;" parent="1" target="F0gC_sX0E5ZvVLbw8DYC-25" edge="1">
          <mxGeometry relative="1" as="geometry">
            <mxPoint x="630" y="450" as="sourcePoint" />
          </mxGeometry>
        </mxCell>
        <mxCell id="F0gC_sX0E5ZvVLbw8DYC-29" value="item: attribute" style="label;fontStyle=0;strokeColor=none;fillColor=none;align=left;verticalAlign=top;overflow=hidden;spacingLeft=28;spacingRight=4;rotatable=0;points=[[0,0.5],[1,0.5]];portConstraint=eastwest;imageWidth=16;imageHeight=16;image=img/clipart/Gear_128x128.png" parent="1" vertex="1">
          <mxGeometry x="130" y="450" width="120" height="26" as="geometry" />
        </mxCell>
        <mxCell id="F0gC_sX0E5ZvVLbw8DYC-30" value="Text" style="text;html=1;align=center;verticalAlign=middle;resizable=0;points=[];autosize=1;strokeColor=none;fillColor=none;" parent="1" vertex="1">
          <mxGeometry x="540" y="140" width="40" height="20" as="geometry" />
        </mxCell>
      </root>
    </mxGraphModel>
  </diagram>
</mxfile>
